<?xml version="1.0" encoding="UTF-8"?>
<svg xmlns="http://www.w3.org/2000/svg" xmlns:xlink="http://www.w3.org/1999/xlink" width="360pt" height="285pt" viewBox="0 0 360 285" version="1.1">
<g id="surface1">
<path style="fill:none;stroke-width:1;stroke-linecap:butt;stroke-linejoin:miter;stroke:rgb(14.99939%,28.999329%,50%);stroke-opacity:0.7;stroke-miterlimit:3.25;" d="M 128.027344 162.78125 L 77.820313 95.023438 "/>
<path style="fill:none;stroke-width:1;stroke-linecap:butt;stroke-linejoin:miter;stroke:rgb(14.99939%,28.999329%,50%);stroke-opacity:0.7;stroke-miterlimit:3.25;" d="M 127.742188 163.019531 L 52.242188 82.675781 "/>
<path style="fill:none;stroke-width:1;stroke-linecap:butt;stroke-linejoin:miter;stroke:rgb(14.99939%,28.999329%,50%);stroke-opacity:0.7;stroke-miterlimit:3.25;" d="M 132.28125 163.203125 L 181.035156 119.171875 "/>
<path style="fill:none;stroke-width:1;stroke-linecap:butt;stroke-linejoin:miter;stroke:rgb(14.99939%,28.999329%,50%);stroke-opacity:0.7;stroke-miterlimit:3.25;" d="M 133.074219 164.910156 L 238.417969 150.710938 "/>
<path style="fill:none;stroke-width:1;stroke-linecap:butt;stroke-linejoin:miter;stroke:rgb(14.99939%,28.999329%,50%);stroke-opacity:0.7;stroke-miterlimit:3.25;" d="M 131.539063 168.070313 L 192.773438 271.566406 "/>
<path style="fill:none;stroke-width:1;stroke-linecap:butt;stroke-linejoin:miter;stroke:rgb(14.99939%,28.999329%,50%);stroke-opacity:0.7;stroke-miterlimit:3.25;" d="M 130.320313 168.488281 L 134.003906 197.511719 "/>
<path style="fill:none;stroke-width:1;stroke-linecap:butt;stroke-linejoin:miter;stroke:rgb(14.99939%,28.999329%,50%);stroke-opacity:0.7;stroke-miterlimit:3.25;" d="M 126.882813 166.277344 L 66.734375 184.964844 "/>
<path style="fill:none;stroke-width:1;stroke-linecap:butt;stroke-linejoin:miter;stroke:rgb(14.99939%,28.999329%,50%);stroke-opacity:0.7;stroke-miterlimit:3.25;" d="M 126.992188 164.09375 L 63.324219 137.136719 "/>
<path style="fill:none;stroke-width:1;stroke-linecap:butt;stroke-linejoin:miter;stroke:rgb(14.99939%,28.999329%,50%);stroke-opacity:0.7;stroke-miterlimit:3.25;" d="M 13.101563 130.492188 L 73.207031 94.113281 "/>
<path style="fill:none;stroke-width:1;stroke-linecap:butt;stroke-linejoin:miter;stroke:rgb(14.99939%,28.999329%,50%);stroke-opacity:0.7;stroke-miterlimit:3.25;" d="M 12.3125 129.617188 L 48.132813 82.882813 "/>
<path style="fill:none;stroke-width:1;stroke-linecap:butt;stroke-linejoin:miter;stroke:rgb(14.99939%,28.999329%,50%);stroke-opacity:0.7;stroke-miterlimit:3.25;" d="M 13.53125 131.703125 L 94.097656 120.574219 "/>
<path style="fill:none;stroke-width:1;stroke-linecap:butt;stroke-linejoin:miter;stroke:rgb(14.99939%,28.999329%,50%);stroke-opacity:0.7;stroke-miterlimit:3.25;" d="M 13.371094 133.222656 L 88.433594 160.390625 "/>
<path style="fill:none;stroke-width:1;stroke-linecap:butt;stroke-linejoin:miter;stroke:rgb(14.99939%,28.999329%,50%);stroke-opacity:0.7;stroke-miterlimit:3.25;" d="M 12.617188 134.398438 L 61.457031 183.648438 "/>
<path style="fill:none;stroke-width:1;stroke-linecap:butt;stroke-linejoin:miter;stroke:rgb(14.99939%,28.999329%,50%);stroke-opacity:0.7;stroke-miterlimit:3.25;" d="M 13.550781 132.378906 L 57.222656 135.660156 "/>
<path style="fill:none;stroke-width:1;stroke-linecap:butt;stroke-linejoin:miter;stroke:rgb(14.99939%,28.999329%,50%);stroke-opacity:0.7;stroke-miterlimit:3.25;" d="M 77.867188 94.988281 L 95.304688 117.621094 "/>
<path style="fill:none;stroke-width:1;stroke-linecap:butt;stroke-linejoin:miter;stroke:rgb(14.99939%,28.999329%,50%);stroke-opacity:0.7;stroke-miterlimit:3.25;" d="M 79.105469 92.460938 L 134.09375 92.300781 "/>
<path style="fill:none;stroke-width:1;stroke-linecap:butt;stroke-linejoin:miter;stroke:rgb(14.99939%,28.999329%,50%);stroke-opacity:0.7;stroke-miterlimit:3.25;" d="M 75.675781 89.296875 L 71.628906 37.738281 "/>
<path style="fill:none;stroke-width:1;stroke-linecap:butt;stroke-linejoin:miter;stroke:rgb(14.99939%,28.999329%,50%);stroke-opacity:0.7;stroke-miterlimit:3.25;" d="M 79.027344 93.175781 L 180.296875 116.332031 "/>
<path style="fill:none;stroke-width:1;stroke-linecap:butt;stroke-linejoin:miter;stroke:rgb(14.99939%,28.999329%,50%);stroke-opacity:0.7;stroke-miterlimit:3.25;" d="M 74.855469 95.464844 L 61.464844 132.902344 "/>
<path style="fill:none;stroke-width:1;stroke-linecap:butt;stroke-linejoin:miter;stroke:rgb(14.99939%,28.999329%,50%);stroke-opacity:0.7;stroke-miterlimit:3.25;" d="M 53.214844 80.789063 L 134.125 91.859375 "/>
<path style="fill:none;stroke-width:1;stroke-linecap:butt;stroke-linejoin:miter;stroke:rgb(14.99939%,28.999329%,50%);stroke-opacity:0.7;stroke-miterlimit:3.25;" d="M 51.40625 77.472656 L 70.039063 37.453125 "/>
<path style="fill:none;stroke-width:1;stroke-linecap:butt;stroke-linejoin:miter;stroke:rgb(14.99939%,28.999329%,50%);stroke-opacity:0.7;stroke-miterlimit:3.25;" d="M 52.914063 78.945313 L 133.054688 39.167969 "/>
<path style="fill:none;stroke-width:1;stroke-linecap:butt;stroke-linejoin:miter;stroke:rgb(14.99939%,28.999329%,50%);stroke-opacity:0.7;stroke-miterlimit:3.25;" d="M 51.511719 83.191406 L 89.980469 158.640625 "/>
<path style="fill:none;stroke-width:1;stroke-linecap:butt;stroke-linejoin:miter;stroke:rgb(14.99939%,28.999329%,50%);stroke-opacity:0.7;stroke-miterlimit:3.25;" d="M 99.855469 118.324219 L 134.664063 94.105469 "/>
<path style="fill:none;stroke-width:1;stroke-linecap:butt;stroke-linejoin:miter;stroke:rgb(14.99939%,28.999329%,50%);stroke-opacity:0.7;stroke-miterlimit:3.25;" d="M 96.328125 117.09375 L 72.300781 37.613281 "/>
<path style="fill:none;stroke-width:1;stroke-linecap:butt;stroke-linejoin:miter;stroke:rgb(14.99939%,28.999329%,50%);stroke-opacity:0.7;stroke-miterlimit:3.25;" d="M 100.425781 120.113281 L 237.023438 118.972656 "/>
<path style="fill:none;stroke-width:1;stroke-linecap:butt;stroke-linejoin:miter;stroke:rgb(14.99939%,28.999329%,50%);stroke-opacity:0.7;stroke-miterlimit:3.25;" d="M 96.515625 123.234375 L 72.246094 225.972656 "/>
<path style="fill:none;stroke-width:1;stroke-linecap:butt;stroke-linejoin:miter;stroke:rgb(14.99939%,28.999329%,50%);stroke-opacity:0.7;stroke-miterlimit:3.25;" d="M 139.617188 90.140625 L 193.929688 40.261719 "/>
<path style="fill:none;stroke-width:1;stroke-linecap:butt;stroke-linejoin:miter;stroke:rgb(14.99939%,28.999329%,50%);stroke-opacity:0.7;stroke-miterlimit:3.25;" d="M 137.195313 89.109375 L 135.980469 40.933594 "/>
<path style="fill:none;stroke-width:1;stroke-linecap:butt;stroke-linejoin:miter;stroke:rgb(14.99939%,28.999329%,50%);stroke-opacity:0.7;stroke-miterlimit:3.25;" d="M 139.339844 94.707031 L 230.128906 200.886719 "/>
<path style="fill:none;stroke-width:1;stroke-linecap:butt;stroke-linejoin:miter;stroke:rgb(14.99939%,28.999329%,50%);stroke-opacity:0.7;stroke-miterlimit:3.25;" d="M 74.558594 34.660156 L 193.09375 38.019531 "/>
<path style="fill:none;stroke-width:1;stroke-linecap:butt;stroke-linejoin:miter;stroke:rgb(14.99939%,28.999329%,50%);stroke-opacity:0.7;stroke-miterlimit:3.25;" d="M 71.039063 37.730469 L 60.738281 132.734375 "/>
<path style="fill:none;stroke-width:1;stroke-linecap:butt;stroke-linejoin:miter;stroke:rgb(14.99939%,28.999329%,50%);stroke-opacity:0.7;stroke-miterlimit:3.25;" d="M 193.089844 38.089844 L 139.082031 37.773438 "/>
<path style="fill:none;stroke-width:1;stroke-linecap:butt;stroke-linejoin:miter;stroke:rgb(14.99939%,28.999329%,50%);stroke-opacity:0.7;stroke-miterlimit:3.25;" d="M 194.679688 40.863281 L 184.015625 59.289063 "/>
<path style="fill:none;stroke-width:1;stroke-linecap:butt;stroke-linejoin:miter;stroke:rgb(14.99939%,28.999329%,50%);stroke-opacity:0.7;stroke-miterlimit:3.25;" d="M 199.226563 39.28125 L 275.769531 69.582031 "/>
<path style="fill:none;stroke-width:1;stroke-linecap:butt;stroke-linejoin:miter;stroke:rgb(14.99939%,28.999329%,50%);stroke-opacity:0.7;stroke-miterlimit:3.25;" d="M 198.183594 40.652344 L 281.046875 150.699219 "/>
<path style="fill:none;stroke-width:1;stroke-linecap:butt;stroke-linejoin:miter;stroke:rgb(14.99939%,28.999329%,50%);stroke-opacity:0.7;stroke-miterlimit:3.25;" d="M 138.941406 36.820313 L 222.660156 11.027344 "/>
<path style="fill:none;stroke-width:1;stroke-linecap:butt;stroke-linejoin:miter;stroke:rgb(14.99939%,28.999329%,50%);stroke-opacity:0.7;stroke-miterlimit:3.25;" d="M 138.757813 39.15625 L 239.910156 88.738281 "/>
<path style="fill:none;stroke-width:1;stroke-linecap:butt;stroke-linejoin:miter;stroke:rgb(14.99939%,28.999329%,50%);stroke-opacity:0.7;stroke-miterlimit:3.25;" d="M 133.960938 40.277344 L 62.335938 133.375 "/>
<path style="fill:none;stroke-width:1;stroke-linecap:butt;stroke-linejoin:miter;stroke:rgb(14.99939%,28.999329%,50%);stroke-opacity:0.7;stroke-miterlimit:3.25;" d="M 223.664063 12.535156 L 184.457031 59.597656 "/>
<path style="fill:none;stroke-width:1;stroke-linecap:butt;stroke-linejoin:miter;stroke:rgb(14.99939%,28.999329%,50%);stroke-opacity:0.7;stroke-miterlimit:3.25;" d="M 226.054688 13.25 L 241.210938 147.125 "/>
<path style="fill:none;stroke-width:1;stroke-linecap:butt;stroke-linejoin:miter;stroke:rgb(14.99939%,28.999329%,50%);stroke-opacity:0.7;stroke-miterlimit:3.25;" d="M 182.480469 65.21875 L 183.339844 113.863281 "/>
<path style="fill:none;stroke-width:1;stroke-linecap:butt;stroke-linejoin:miter;stroke:rgb(14.99939%,28.999329%,50%);stroke-opacity:0.7;stroke-miterlimit:3.25;" d="M 185.589844 62.328125 L 275.558594 70.464844 "/>
<path style="fill:none;stroke-width:1;stroke-linecap:butt;stroke-linejoin:miter;stroke:rgb(14.99939%,28.999329%,50%);stroke-opacity:0.7;stroke-miterlimit:3.25;" d="M 180.277344 64.386719 L 93.570313 159.128906 "/>
<path style="fill:none;stroke-width:1;stroke-linecap:butt;stroke-linejoin:miter;stroke:rgb(14.99939%,28.999329%,50%);stroke-opacity:0.7;stroke-miterlimit:3.25;" d="M 239.867188 91.449219 L 186.292969 115.730469 "/>
<path style="fill:none;stroke-width:1;stroke-linecap:butt;stroke-linejoin:miter;stroke:rgb(14.99939%,28.999329%,50%);stroke-opacity:0.7;stroke-miterlimit:3.25;" d="M 245.703125 88.921875 L 346.683594 47.101563 "/>
<path style="fill:none;stroke-width:1;stroke-linecap:butt;stroke-linejoin:miter;stroke:rgb(14.99939%,28.999329%,50%);stroke-opacity:0.7;stroke-miterlimit:3.25;" d="M 245.726563 91.296875 L 301.738281 113.226563 "/>
<path style="fill:none;stroke-width:1;stroke-linecap:butt;stroke-linejoin:miter;stroke:rgb(14.99939%,28.999329%,50%);stroke-opacity:0.7;stroke-miterlimit:3.25;" d="M 245.308594 92.042969 L 312.234375 142.199219 "/>
<path style="fill:none;stroke-width:1;stroke-linecap:butt;stroke-linejoin:miter;stroke:rgb(14.99939%,28.999329%,50%);stroke-opacity:0.7;stroke-miterlimit:3.25;" d="M 240.539063 92.40625 L 136.632813 198.394531 "/>
<path style="fill:none;stroke-width:1;stroke-linecap:butt;stroke-linejoin:miter;stroke:rgb(14.99939%,28.999329%,50%);stroke-opacity:0.7;stroke-miterlimit:3.25;" d="M 186.574219 116.972656 L 301.523438 114.457031 "/>
<path style="fill:none;stroke-width:1;stroke-linecap:butt;stroke-linejoin:miter;stroke:rgb(14.99939%,28.999329%,50%);stroke-opacity:0.7;stroke-miterlimit:3.25;" d="M 186.257813 115.652344 L 275.863281 72.140625 "/>
<path style="fill:none;stroke-width:1;stroke-linecap:butt;stroke-linejoin:miter;stroke:rgb(14.99939%,28.999329%,50%);stroke-opacity:0.7;stroke-miterlimit:3.25;" d="M 186.574219 117.148438 L 237.023438 118.839844 "/>
<path style="fill:none;stroke-width:1;stroke-linecap:butt;stroke-linejoin:miter;stroke:rgb(14.99939%,28.999329%,50%);stroke-opacity:0.7;stroke-miterlimit:3.25;" d="M 180.640625 118.628906 L 66.453125 184.320313 "/>
<path style="fill:none;stroke-width:1;stroke-linecap:butt;stroke-linejoin:miter;stroke:rgb(14.99939%,28.999329%,50%);stroke-opacity:0.7;stroke-miterlimit:3.25;" d="M 347.875 48.542969 L 306.445313 111.726563 "/>
<path style="fill:none;stroke-width:1;stroke-linecap:butt;stroke-linejoin:miter;stroke:rgb(14.99939%,28.999329%,50%);stroke-opacity:0.7;stroke-miterlimit:3.25;" d="M 346.621094 46.9375 L 281.726563 69.699219 "/>
<path style="fill:none;stroke-width:1;stroke-linecap:butt;stroke-linejoin:miter;stroke:rgb(14.99939%,28.999329%,50%);stroke-opacity:0.7;stroke-miterlimit:3.25;" d="M 303.074219 111.652344 L 280.351563 73.484375 "/>
<path style="fill:none;stroke-width:1;stroke-linecap:butt;stroke-linejoin:miter;stroke:rgb(14.99939%,28.999329%,50%);stroke-opacity:0.7;stroke-miterlimit:3.25;" d="M 301.527344 114.609375 L 243.375 118.722656 "/>
<path style="fill:none;stroke-width:1;stroke-linecap:butt;stroke-linejoin:miter;stroke:rgb(14.99939%,28.999329%,50%);stroke-opacity:0.7;stroke-miterlimit:3.25;" d="M 305.722656 117.398438 L 313.757813 141.09375 "/>
<path style="fill:none;stroke-width:1;stroke-linecap:butt;stroke-linejoin:miter;stroke:rgb(14.99939%,28.999329%,50%);stroke-opacity:0.7;stroke-miterlimit:3.25;" d="M 303.777344 117.429688 L 269.703125 229.609375 "/>
<path style="fill:none;stroke-width:1;stroke-linecap:butt;stroke-linejoin:miter;stroke:rgb(14.99939%,28.999329%,50%);stroke-opacity:0.7;stroke-miterlimit:3.25;" d="M 276.738281 73.234375 L 242.1875 116.460938 "/>
<path style="fill:none;stroke-width:1;stroke-linecap:butt;stroke-linejoin:miter;stroke:rgb(14.99939%,28.999329%,50%);stroke-opacity:0.7;stroke-miterlimit:3.25;" d="M 280.128906 73.605469 L 313.375 141.253906 "/>
<path style="fill:none;stroke-width:1;stroke-linecap:butt;stroke-linejoin:miter;stroke:rgb(14.99939%,28.999329%,50%);stroke-opacity:0.7;stroke-miterlimit:3.25;" d="M 278.886719 73.929688 L 282.796875 150.066406 "/>
<path style="fill:none;stroke-width:1;stroke-linecap:butt;stroke-linejoin:miter;stroke:rgb(14.99939%,28.999329%,50%);stroke-opacity:0.7;stroke-miterlimit:3.25;" d="M 243.214844 119.960938 L 311.765625 143.089844 "/>
<path style="fill:none;stroke-width:1;stroke-linecap:butt;stroke-linejoin:miter;stroke:rgb(14.99939%,28.999329%,50%);stroke-opacity:0.7;stroke-miterlimit:3.25;" d="M 242.683594 120.933594 L 280.480469 151.25 "/>
<path style="fill:none;stroke-width:1;stroke-linecap:butt;stroke-linejoin:miter;stroke:rgb(14.99939%,28.999329%,50%);stroke-opacity:0.7;stroke-miterlimit:3.25;" d="M 240.339844 122.121094 L 241.429688 147.109375 "/>
<path style="fill:none;stroke-width:1;stroke-linecap:butt;stroke-linejoin:miter;stroke:rgb(14.99939%,28.999329%,50%);stroke-opacity:0.7;stroke-miterlimit:3.25;" d="M 311.609375 144.375 L 244.738281 150.019531 "/>
<path style="fill:none;stroke-width:1;stroke-linecap:butt;stroke-linejoin:miter;stroke:rgb(14.99939%,28.999329%,50%);stroke-opacity:0.7;stroke-miterlimit:3.25;" d="M 312.195313 145.960938 L 234.777344 201.453125 "/>
<path style="fill:none;stroke-width:1;stroke-linecap:butt;stroke-linejoin:miter;stroke:rgb(14.99939%,28.999329%,50%);stroke-opacity:0.7;stroke-miterlimit:3.25;" d="M 282.40625 156.371094 L 262.457031 269.71875 "/>
<path style="fill:none;stroke-width:1;stroke-linecap:butt;stroke-linejoin:miter;stroke:rgb(14.99939%,28.999329%,50%);stroke-opacity:0.7;stroke-miterlimit:3.25;" d="M 241.015625 153.417969 L 232.746094 200.171875 "/>
<path style="fill:none;stroke-width:1;stroke-linecap:butt;stroke-linejoin:miter;stroke:rgb(14.99939%,28.999329%,50%);stroke-opacity:0.7;stroke-miterlimit:3.25;" d="M 242.566406 153.304688 L 267.78125 229.632813 "/>
<path style="fill:none;stroke-width:1;stroke-linecap:butt;stroke-linejoin:miter;stroke:rgb(14.99939%,28.999329%,50%);stroke-opacity:0.7;stroke-miterlimit:3.25;" d="M 233.441406 206.230469 L 260.65625 269.925781 "/>
<path style="fill:none;stroke-width:1;stroke-linecap:butt;stroke-linejoin:miter;stroke:rgb(14.99939%,28.999329%,50%);stroke-opacity:0.7;stroke-miterlimit:3.25;" d="M 234.675781 205.292969 L 266.300781 230.660156 "/>
<path style="fill:none;stroke-width:1;stroke-linecap:butt;stroke-linejoin:miter;stroke:rgb(14.99939%,28.999329%,50%);stroke-opacity:0.7;stroke-miterlimit:3.25;" d="M 229.773438 205.367188 L 171.5625 254.941406 "/>
<path style="fill:none;stroke-width:1;stroke-linecap:butt;stroke-linejoin:miter;stroke:rgb(14.99939%,28.999329%,50%);stroke-opacity:0.7;stroke-miterlimit:3.25;" d="M 262.441406 269.714844 L 268.242188 235.785156 "/>
<path style="fill:none;stroke-width:1;stroke-linecap:butt;stroke-linejoin:miter;stroke:rgb(14.99939%,28.999329%,50%);stroke-opacity:0.7;stroke-miterlimit:3.25;" d="M 258.769531 272.316406 L 172.273438 257.539063 "/>
<path style="fill:none;stroke-width:1;stroke-linecap:butt;stroke-linejoin:miter;stroke:rgb(14.99939%,28.999329%,50%);stroke-opacity:0.7;stroke-miterlimit:3.25;" d="M 258.726563 272.917969 L 197.570313 274.234375 "/>
<path style="fill:none;stroke-width:1;stroke-linecap:butt;stroke-linejoin:miter;stroke:rgb(14.99939%,28.999329%,50%);stroke-opacity:0.7;stroke-miterlimit:3.25;" d="M 265.691406 233.40625 L 172.230469 256.25 "/>
<path style="fill:none;stroke-width:1;stroke-linecap:butt;stroke-linejoin:miter;stroke:rgb(14.99939%,28.999329%,50%);stroke-opacity:0.7;stroke-miterlimit:3.25;" d="M 266.003906 234.203125 L 197.164063 272.75 "/>
<path style="fill:none;stroke-width:1;stroke-linecap:butt;stroke-linejoin:miter;stroke:rgb(14.99939%,28.999329%,50%);stroke-opacity:0.7;stroke-miterlimit:3.25;" d="M 171.765625 258.800781 L 191.769531 272.503906 "/>
<path style="fill:none;stroke-width:1;stroke-linecap:butt;stroke-linejoin:miter;stroke:rgb(14.99939%,28.999329%,50%);stroke-opacity:0.7;stroke-miterlimit:3.25;" d="M 166.082031 256.128906 L 74.570313 229.941406 "/>
<path style="fill:none;stroke-width:1;stroke-linecap:butt;stroke-linejoin:miter;stroke:rgb(14.99939%,28.999329%,50%);stroke-opacity:0.7;stroke-miterlimit:3.25;" d="M 167.132813 254.539063 L 93.429688 163.941406 "/>
<path style="fill:none;stroke-width:1;stroke-linecap:butt;stroke-linejoin:miter;stroke:rgb(14.99939%,28.999329%,50%);stroke-opacity:0.7;stroke-miterlimit:3.25;" d="M 192.382813 271.835938 L 136.414063 203.132813 "/>
<path style="fill:none;stroke-width:1;stroke-linecap:butt;stroke-linejoin:miter;stroke:rgb(14.99939%,28.999329%,50%);stroke-opacity:0.7;stroke-miterlimit:3.25;" d="M 74.414063 227.757813 L 131.507813 201.972656 "/>
<path style="fill:none;stroke-width:1;stroke-linecap:butt;stroke-linejoin:miter;stroke:rgb(14.99939%,28.999329%,50%);stroke-opacity:0.7;stroke-miterlimit:3.25;" d="M 70.949219 225.9375 L 64.261719 189.035156 "/>
<path style="fill:none;stroke-width:1;stroke-linecap:butt;stroke-linejoin:miter;stroke:rgb(14.99939%,28.999329%,50%);stroke-opacity:0.7;stroke-miterlimit:3.25;" d="M 71.136719 225.910156 L 60.773438 139.054688 "/>
<path style="fill:none;stroke-width:1;stroke-linecap:butt;stroke-linejoin:miter;stroke:rgb(14.99939%,28.999329%,50%);stroke-opacity:0.7;stroke-miterlimit:3.25;" d="M 93.773438 163.617188 L 132.054688 198.523438 "/>
<path style="fill:none;stroke-width:1;stroke-linecap:butt;stroke-linejoin:miter;stroke:rgb(14.99939%,28.999329%,50%);stroke-opacity:0.7;stroke-miterlimit:3.25;" d="M 88.96875 159.449219 L 62.847656 137.917969 "/>
<path style="fill:none;stroke-width:1;stroke-linecap:butt;stroke-linejoin:miter;stroke:rgb(14.99939%,28.999329%,50%);stroke-opacity:0.7;stroke-miterlimit:3.25;" d="M 131.292969 200.015625 L 66.808594 186.554688 "/>
<path style="fill:none;stroke-width:1;stroke-linecap:butt;stroke-linejoin:miter;stroke:rgb(14.99939%,28.999329%,50%);stroke-opacity:0.7;stroke-miterlimit:3.25;" d="M 132.011719 198.570313 L 62.789063 137.992188 "/>
<path style="fill:none;stroke-width:1;stroke-linecap:butt;stroke-linejoin:miter;stroke:rgb(14.99939%,28.999329%,50%);stroke-opacity:0.7;stroke-miterlimit:3.25;" d="M 63.488281 182.734375 L 60.605469 139.070313 "/>
<path style="fill:none;stroke-width:1;stroke-linecap:square;stroke-linejoin:miter;stroke:rgb(14.99939%,28.999329%,50%);stroke-opacity:0.7;stroke-miterlimit:3.25;" d="M 77.820313 95.023438 Z M 77.820313 95.023438 "/>
<path style="fill:none;stroke-width:1;stroke-linecap:square;stroke-linejoin:miter;stroke:rgb(14.99939%,28.999329%,50%);stroke-opacity:0.7;stroke-miterlimit:3.25;" d="M 52.242188 82.675781 Z M 52.242188 82.675781 "/>
<path style="fill:none;stroke-width:1;stroke-linecap:square;stroke-linejoin:miter;stroke:rgb(14.99939%,28.999329%,50%);stroke-opacity:0.7;stroke-miterlimit:3.25;" d="M 181.035156 119.171875 Z M 181.035156 119.171875 "/>
<path style="fill:none;stroke-width:1;stroke-linecap:square;stroke-linejoin:miter;stroke:rgb(14.99939%,28.999329%,50%);stroke-opacity:0.7;stroke-miterlimit:3.25;" d="M 238.417969 150.710938 Z M 238.417969 150.710938 "/>
<path style="fill:none;stroke-width:1;stroke-linecap:square;stroke-linejoin:miter;stroke:rgb(14.99939%,28.999329%,50%);stroke-opacity:0.7;stroke-miterlimit:3.25;" d="M 192.773438 271.566406 Z M 192.773438 271.566406 "/>
<path style="fill:none;stroke-width:1;stroke-linecap:square;stroke-linejoin:miter;stroke:rgb(14.99939%,28.999329%,50%);stroke-opacity:0.7;stroke-miterlimit:3.25;" d="M 134.003906 197.511719 Z M 134.003906 197.511719 "/>
<path style="fill:none;stroke-width:1;stroke-linecap:square;stroke-linejoin:miter;stroke:rgb(14.99939%,28.999329%,50%);stroke-opacity:0.7;stroke-miterlimit:3.25;" d="M 66.734375 184.964844 Z M 66.734375 184.964844 "/>
<path style="fill:none;stroke-width:1;stroke-linecap:square;stroke-linejoin:miter;stroke:rgb(14.99939%,28.999329%,50%);stroke-opacity:0.7;stroke-miterlimit:3.25;" d="M 63.324219 137.136719 Z M 63.324219 137.136719 "/>
<path style="fill:none;stroke-width:1;stroke-linecap:square;stroke-linejoin:miter;stroke:rgb(14.99939%,28.999329%,50%);stroke-opacity:0.7;stroke-miterlimit:3.25;" d="M 73.207031 94.113281 Z M 73.207031 94.113281 "/>
<path style="fill:none;stroke-width:1;stroke-linecap:square;stroke-linejoin:miter;stroke:rgb(14.99939%,28.999329%,50%);stroke-opacity:0.7;stroke-miterlimit:3.25;" d="M 48.132813 82.882813 Z M 48.132813 82.882813 "/>
<path style="fill:none;stroke-width:1;stroke-linecap:square;stroke-linejoin:miter;stroke:rgb(14.99939%,28.999329%,50%);stroke-opacity:0.7;stroke-miterlimit:3.25;" d="M 94.097656 120.574219 Z M 94.097656 120.574219 "/>
<path style="fill:none;stroke-width:1;stroke-linecap:square;stroke-linejoin:miter;stroke:rgb(14.99939%,28.999329%,50%);stroke-opacity:0.7;stroke-miterlimit:3.25;" d="M 88.433594 160.390625 Z M 88.433594 160.390625 "/>
<path style="fill:none;stroke-width:1;stroke-linecap:square;stroke-linejoin:miter;stroke:rgb(14.99939%,28.999329%,50%);stroke-opacity:0.7;stroke-miterlimit:3.25;" d="M 61.457031 183.648438 Z M 61.457031 183.648438 "/>
<path style="fill:none;stroke-width:1;stroke-linecap:square;stroke-linejoin:miter;stroke:rgb(14.99939%,28.999329%,50%);stroke-opacity:0.7;stroke-miterlimit:3.25;" d="M 57.222656 135.660156 Z M 57.222656 135.660156 "/>
<path style="fill:none;stroke-width:1;stroke-linecap:square;stroke-linejoin:miter;stroke:rgb(14.99939%,28.999329%,50%);stroke-opacity:0.7;stroke-miterlimit:3.25;" d="M 95.304688 117.621094 Z M 95.304688 117.621094 "/>
<path style="fill:none;stroke-width:1;stroke-linecap:square;stroke-linejoin:miter;stroke:rgb(14.99939%,28.999329%,50%);stroke-opacity:0.7;stroke-miterlimit:3.25;" d="M 134.09375 92.300781 Z M 134.09375 92.300781 "/>
<path style="fill:none;stroke-width:1;stroke-linecap:square;stroke-linejoin:miter;stroke:rgb(14.99939%,28.999329%,50%);stroke-opacity:0.7;stroke-miterlimit:3.25;" d="M 71.628906 37.738281 Z M 71.628906 37.738281 "/>
<path style="fill:none;stroke-width:1;stroke-linecap:square;stroke-linejoin:miter;stroke:rgb(14.99939%,28.999329%,50%);stroke-opacity:0.7;stroke-miterlimit:3.25;" d="M 180.296875 116.332031 Z M 180.296875 116.332031 "/>
<path style="fill:none;stroke-width:1;stroke-linecap:square;stroke-linejoin:miter;stroke:rgb(14.99939%,28.999329%,50%);stroke-opacity:0.7;stroke-miterlimit:3.25;" d="M 61.464844 132.902344 Z M 61.464844 132.902344 "/>
<path style="fill:none;stroke-width:1;stroke-linecap:square;stroke-linejoin:miter;stroke:rgb(14.99939%,28.999329%,50%);stroke-opacity:0.7;stroke-miterlimit:3.25;" d="M 134.125 91.859375 Z M 134.125 91.859375 "/>
<path style="fill:none;stroke-width:1;stroke-linecap:square;stroke-linejoin:miter;stroke:rgb(14.99939%,28.999329%,50%);stroke-opacity:0.7;stroke-miterlimit:3.25;" d="M 70.039063 37.453125 Z M 70.039063 37.453125 "/>
<path style="fill:none;stroke-width:1;stroke-linecap:square;stroke-linejoin:miter;stroke:rgb(14.99939%,28.999329%,50%);stroke-opacity:0.7;stroke-miterlimit:3.25;" d="M 133.054688 39.167969 Z M 133.054688 39.167969 "/>
<path style="fill:none;stroke-width:1;stroke-linecap:square;stroke-linejoin:miter;stroke:rgb(14.99939%,28.999329%,50%);stroke-opacity:0.7;stroke-miterlimit:3.25;" d="M 89.980469 158.640625 Z M 89.980469 158.640625 "/>
<path style="fill:none;stroke-width:1;stroke-linecap:square;stroke-linejoin:miter;stroke:rgb(14.99939%,28.999329%,50%);stroke-opacity:0.7;stroke-miterlimit:3.25;" d="M 134.664063 94.105469 Z M 134.664063 94.105469 "/>
<path style="fill:none;stroke-width:1;stroke-linecap:square;stroke-linejoin:miter;stroke:rgb(14.99939%,28.999329%,50%);stroke-opacity:0.7;stroke-miterlimit:3.25;" d="M 72.300781 37.613281 Z M 72.300781 37.613281 "/>
<path style="fill:none;stroke-width:1;stroke-linecap:square;stroke-linejoin:miter;stroke:rgb(14.99939%,28.999329%,50%);stroke-opacity:0.7;stroke-miterlimit:3.25;" d="M 237.023438 118.972656 Z M 237.023438 118.972656 "/>
<path style="fill:none;stroke-width:1;stroke-linecap:square;stroke-linejoin:miter;stroke:rgb(14.99939%,28.999329%,50%);stroke-opacity:0.7;stroke-miterlimit:3.25;" d="M 72.246094 225.972656 Z M 72.246094 225.972656 "/>
<path style="fill:none;stroke-width:1;stroke-linecap:square;stroke-linejoin:miter;stroke:rgb(14.99939%,28.999329%,50%);stroke-opacity:0.7;stroke-miterlimit:3.25;" d="M 193.929688 40.261719 Z M 193.929688 40.261719 "/>
<path style="fill:none;stroke-width:1;stroke-linecap:square;stroke-linejoin:miter;stroke:rgb(14.99939%,28.999329%,50%);stroke-opacity:0.7;stroke-miterlimit:3.25;" d="M 135.980469 40.933594 Z M 135.980469 40.933594 "/>
<path style="fill:none;stroke-width:1;stroke-linecap:square;stroke-linejoin:miter;stroke:rgb(14.99939%,28.999329%,50%);stroke-opacity:0.7;stroke-miterlimit:3.25;" d="M 230.128906 200.886719 Z M 230.128906 200.886719 "/>
<path style="fill:none;stroke-width:1;stroke-linecap:square;stroke-linejoin:miter;stroke:rgb(14.99939%,28.999329%,50%);stroke-opacity:0.7;stroke-miterlimit:3.25;" d="M 193.09375 38.019531 Z M 193.09375 38.019531 "/>
<path style="fill:none;stroke-width:1;stroke-linecap:square;stroke-linejoin:miter;stroke:rgb(14.99939%,28.999329%,50%);stroke-opacity:0.7;stroke-miterlimit:3.25;" d="M 60.738281 132.734375 Z M 60.738281 132.734375 "/>
<path style="fill:none;stroke-width:1;stroke-linecap:square;stroke-linejoin:miter;stroke:rgb(14.99939%,28.999329%,50%);stroke-opacity:0.7;stroke-miterlimit:3.25;" d="M 139.082031 37.773438 Z M 139.082031 37.773438 "/>
<path style="fill:none;stroke-width:1;stroke-linecap:square;stroke-linejoin:miter;stroke:rgb(14.99939%,28.999329%,50%);stroke-opacity:0.7;stroke-miterlimit:3.25;" d="M 184.015625 59.289063 Z M 184.015625 59.289063 "/>
<path style="fill:none;stroke-width:1;stroke-linecap:square;stroke-linejoin:miter;stroke:rgb(14.99939%,28.999329%,50%);stroke-opacity:0.7;stroke-miterlimit:3.25;" d="M 275.769531 69.582031 Z M 275.769531 69.582031 "/>
<path style="fill:none;stroke-width:1;stroke-linecap:square;stroke-linejoin:miter;stroke:rgb(14.99939%,28.999329%,50%);stroke-opacity:0.7;stroke-miterlimit:3.25;" d="M 281.046875 150.699219 Z M 281.046875 150.699219 "/>
<path style="fill:none;stroke-width:1;stroke-linecap:square;stroke-linejoin:miter;stroke:rgb(14.99939%,28.999329%,50%);stroke-opacity:0.7;stroke-miterlimit:3.25;" d="M 222.660156 11.027344 Z M 222.660156 11.027344 "/>
<path style="fill:none;stroke-width:1;stroke-linecap:square;stroke-linejoin:miter;stroke:rgb(14.99939%,28.999329%,50%);stroke-opacity:0.7;stroke-miterlimit:3.25;" d="M 239.910156 88.738281 Z M 239.910156 88.738281 "/>
<path style="fill:none;stroke-width:1;stroke-linecap:square;stroke-linejoin:miter;stroke:rgb(14.99939%,28.999329%,50%);stroke-opacity:0.7;stroke-miterlimit:3.25;" d="M 62.335938 133.375 Z M 62.335938 133.375 "/>
<path style="fill:none;stroke-width:1;stroke-linecap:square;stroke-linejoin:miter;stroke:rgb(14.99939%,28.999329%,50%);stroke-opacity:0.7;stroke-miterlimit:3.25;" d="M 184.457031 59.597656 Z M 184.457031 59.597656 "/>
<path style="fill:none;stroke-width:1;stroke-linecap:square;stroke-linejoin:miter;stroke:rgb(14.99939%,28.999329%,50%);stroke-opacity:0.7;stroke-miterlimit:3.25;" d="M 241.210938 147.125 Z M 241.210938 147.125 "/>
<path style="fill:none;stroke-width:1;stroke-linecap:square;stroke-linejoin:miter;stroke:rgb(14.99939%,28.999329%,50%);stroke-opacity:0.7;stroke-miterlimit:3.25;" d="M 183.339844 113.863281 Z M 183.339844 113.863281 "/>
<path style="fill:none;stroke-width:1;stroke-linecap:square;stroke-linejoin:miter;stroke:rgb(14.99939%,28.999329%,50%);stroke-opacity:0.7;stroke-miterlimit:3.25;" d="M 275.558594 70.464844 Z M 275.558594 70.464844 "/>
<path style="fill:none;stroke-width:1;stroke-linecap:square;stroke-linejoin:miter;stroke:rgb(14.99939%,28.999329%,50%);stroke-opacity:0.7;stroke-miterlimit:3.25;" d="M 93.570313 159.128906 Z M 93.570313 159.128906 "/>
<path style="fill:none;stroke-width:1;stroke-linecap:square;stroke-linejoin:miter;stroke:rgb(14.99939%,28.999329%,50%);stroke-opacity:0.7;stroke-miterlimit:3.25;" d="M 186.292969 115.730469 Z M 186.292969 115.730469 "/>
<path style="fill:none;stroke-width:1;stroke-linecap:square;stroke-linejoin:miter;stroke:rgb(14.99939%,28.999329%,50%);stroke-opacity:0.7;stroke-miterlimit:3.25;" d="M 346.683594 47.101563 Z M 346.683594 47.101563 "/>
<path style="fill:none;stroke-width:1;stroke-linecap:square;stroke-linejoin:miter;stroke:rgb(14.99939%,28.999329%,50%);stroke-opacity:0.7;stroke-miterlimit:3.25;" d="M 301.738281 113.226563 Z M 301.738281 113.226563 "/>
<path style="fill:none;stroke-width:1;stroke-linecap:square;stroke-linejoin:miter;stroke:rgb(14.99939%,28.999329%,50%);stroke-opacity:0.7;stroke-miterlimit:3.25;" d="M 312.234375 142.199219 Z M 312.234375 142.199219 "/>
<path style="fill:none;stroke-width:1;stroke-linecap:square;stroke-linejoin:miter;stroke:rgb(14.99939%,28.999329%,50%);stroke-opacity:0.7;stroke-miterlimit:3.25;" d="M 136.632813 198.394531 Z M 136.632813 198.394531 "/>
<path style="fill:none;stroke-width:1;stroke-linecap:square;stroke-linejoin:miter;stroke:rgb(14.99939%,28.999329%,50%);stroke-opacity:0.7;stroke-miterlimit:3.25;" d="M 301.523438 114.457031 Z M 301.523438 114.457031 "/>
<path style="fill:none;stroke-width:1;stroke-linecap:square;stroke-linejoin:miter;stroke:rgb(14.99939%,28.999329%,50%);stroke-opacity:0.7;stroke-miterlimit:3.25;" d="M 275.863281 72.140625 Z M 275.863281 72.140625 "/>
<path style="fill:none;stroke-width:1;stroke-linecap:square;stroke-linejoin:miter;stroke:rgb(14.99939%,28.999329%,50%);stroke-opacity:0.7;stroke-miterlimit:3.25;" d="M 237.023438 118.839844 Z M 237.023438 118.839844 "/>
<path style="fill:none;stroke-width:1;stroke-linecap:square;stroke-linejoin:miter;stroke:rgb(14.99939%,28.999329%,50%);stroke-opacity:0.7;stroke-miterlimit:3.25;" d="M 66.453125 184.320313 Z M 66.453125 184.320313 "/>
<path style="fill:none;stroke-width:1;stroke-linecap:square;stroke-linejoin:miter;stroke:rgb(14.99939%,28.999329%,50%);stroke-opacity:0.7;stroke-miterlimit:3.25;" d="M 306.445313 111.726563 Z M 306.445313 111.726563 "/>
<path style="fill:none;stroke-width:1;stroke-linecap:square;stroke-linejoin:miter;stroke:rgb(14.99939%,28.999329%,50%);stroke-opacity:0.7;stroke-miterlimit:3.25;" d="M 281.726563 69.699219 Z M 281.726563 69.699219 "/>
<path style="fill:none;stroke-width:1;stroke-linecap:square;stroke-linejoin:miter;stroke:rgb(14.99939%,28.999329%,50%);stroke-opacity:0.7;stroke-miterlimit:3.25;" d="M 280.351563 73.484375 Z M 280.351563 73.484375 "/>
<path style="fill:none;stroke-width:1;stroke-linecap:square;stroke-linejoin:miter;stroke:rgb(14.99939%,28.999329%,50%);stroke-opacity:0.7;stroke-miterlimit:3.25;" d="M 243.375 118.722656 Z M 243.375 118.722656 "/>
<path style="fill:none;stroke-width:1;stroke-linecap:square;stroke-linejoin:miter;stroke:rgb(14.99939%,28.999329%,50%);stroke-opacity:0.7;stroke-miterlimit:3.25;" d="M 313.757813 141.09375 Z M 313.757813 141.09375 "/>
<path style="fill:none;stroke-width:1;stroke-linecap:square;stroke-linejoin:miter;stroke:rgb(14.99939%,28.999329%,50%);stroke-opacity:0.7;stroke-miterlimit:3.25;" d="M 269.703125 229.609375 Z M 269.703125 229.609375 "/>
<path style="fill:none;stroke-width:1;stroke-linecap:square;stroke-linejoin:miter;stroke:rgb(14.99939%,28.999329%,50%);stroke-opacity:0.7;stroke-miterlimit:3.25;" d="M 242.1875 116.460938 Z M 242.1875 116.460938 "/>
<path style="fill:none;stroke-width:1;stroke-linecap:square;stroke-linejoin:miter;stroke:rgb(14.99939%,28.999329%,50%);stroke-opacity:0.7;stroke-miterlimit:3.25;" d="M 313.375 141.253906 Z M 313.375 141.253906 "/>
<path style="fill:none;stroke-width:1;stroke-linecap:square;stroke-linejoin:miter;stroke:rgb(14.99939%,28.999329%,50%);stroke-opacity:0.7;stroke-miterlimit:3.25;" d="M 282.796875 150.066406 Z M 282.796875 150.066406 "/>
<path style="fill:none;stroke-width:1;stroke-linecap:square;stroke-linejoin:miter;stroke:rgb(14.99939%,28.999329%,50%);stroke-opacity:0.7;stroke-miterlimit:3.25;" d="M 311.765625 143.089844 Z M 311.765625 143.089844 "/>
<path style="fill:none;stroke-width:1;stroke-linecap:square;stroke-linejoin:miter;stroke:rgb(14.99939%,28.999329%,50%);stroke-opacity:0.7;stroke-miterlimit:3.25;" d="M 280.480469 151.25 Z M 280.480469 151.25 "/>
<path style="fill:none;stroke-width:1;stroke-linecap:square;stroke-linejoin:miter;stroke:rgb(14.99939%,28.999329%,50%);stroke-opacity:0.7;stroke-miterlimit:3.25;" d="M 241.429688 147.109375 Z M 241.429688 147.109375 "/>
<path style="fill:none;stroke-width:1;stroke-linecap:square;stroke-linejoin:miter;stroke:rgb(14.99939%,28.999329%,50%);stroke-opacity:0.7;stroke-miterlimit:3.25;" d="M 244.738281 150.019531 Z M 244.738281 150.019531 "/>
<path style="fill:none;stroke-width:1;stroke-linecap:square;stroke-linejoin:miter;stroke:rgb(14.99939%,28.999329%,50%);stroke-opacity:0.7;stroke-miterlimit:3.25;" d="M 234.777344 201.453125 Z M 234.777344 201.453125 "/>
<path style="fill:none;stroke-width:1;stroke-linecap:square;stroke-linejoin:miter;stroke:rgb(14.99939%,28.999329%,50%);stroke-opacity:0.7;stroke-miterlimit:3.25;" d="M 262.457031 269.71875 Z M 262.457031 269.71875 "/>
<path style="fill:none;stroke-width:1;stroke-linecap:square;stroke-linejoin:miter;stroke:rgb(14.99939%,28.999329%,50%);stroke-opacity:0.7;stroke-miterlimit:3.25;" d="M 232.746094 200.171875 Z M 232.746094 200.171875 "/>
<path style="fill:none;stroke-width:1;stroke-linecap:square;stroke-linejoin:miter;stroke:rgb(14.99939%,28.999329%,50%);stroke-opacity:0.7;stroke-miterlimit:3.25;" d="M 267.78125 229.632813 Z M 267.78125 229.632813 "/>
<path style="fill:none;stroke-width:1;stroke-linecap:square;stroke-linejoin:miter;stroke:rgb(14.99939%,28.999329%,50%);stroke-opacity:0.7;stroke-miterlimit:3.25;" d="M 260.65625 269.925781 Z M 260.65625 269.925781 "/>
<path style="fill:none;stroke-width:1;stroke-linecap:square;stroke-linejoin:miter;stroke:rgb(14.99939%,28.999329%,50%);stroke-opacity:0.7;stroke-miterlimit:3.25;" d="M 266.300781 230.660156 Z M 266.300781 230.660156 "/>
<path style="fill:none;stroke-width:1;stroke-linecap:square;stroke-linejoin:miter;stroke:rgb(14.99939%,28.999329%,50%);stroke-opacity:0.7;stroke-miterlimit:3.25;" d="M 171.5625 254.941406 Z M 171.5625 254.941406 "/>
<path style="fill:none;stroke-width:1;stroke-linecap:square;stroke-linejoin:miter;stroke:rgb(14.99939%,28.999329%,50%);stroke-opacity:0.7;stroke-miterlimit:3.25;" d="M 268.242188 235.785156 Z M 268.242188 235.785156 "/>
<path style="fill:none;stroke-width:1;stroke-linecap:square;stroke-linejoin:miter;stroke:rgb(14.99939%,28.999329%,50%);stroke-opacity:0.7;stroke-miterlimit:3.25;" d="M 172.273438 257.539063 Z M 172.273438 257.539063 "/>
<path style="fill:none;stroke-width:1;stroke-linecap:square;stroke-linejoin:miter;stroke:rgb(14.99939%,28.999329%,50%);stroke-opacity:0.7;stroke-miterlimit:3.25;" d="M 197.570313 274.234375 Z M 197.570313 274.234375 "/>
<path style="fill:none;stroke-width:1;stroke-linecap:square;stroke-linejoin:miter;stroke:rgb(14.99939%,28.999329%,50%);stroke-opacity:0.7;stroke-miterlimit:3.25;" d="M 172.230469 256.25 Z M 172.230469 256.25 "/>
<path style="fill:none;stroke-width:1;stroke-linecap:square;stroke-linejoin:miter;stroke:rgb(14.99939%,28.999329%,50%);stroke-opacity:0.7;stroke-miterlimit:3.25;" d="M 197.164063 272.75 Z M 197.164063 272.75 "/>
<path style="fill:none;stroke-width:1;stroke-linecap:square;stroke-linejoin:miter;stroke:rgb(14.99939%,28.999329%,50%);stroke-opacity:0.7;stroke-miterlimit:3.25;" d="M 191.769531 272.503906 Z M 191.769531 272.503906 "/>
<path style="fill:none;stroke-width:1;stroke-linecap:square;stroke-linejoin:miter;stroke:rgb(14.99939%,28.999329%,50%);stroke-opacity:0.7;stroke-miterlimit:3.25;" d="M 74.570313 229.941406 Z M 74.570313 229.941406 "/>
<path style="fill:none;stroke-width:1;stroke-linecap:square;stroke-linejoin:miter;stroke:rgb(14.99939%,28.999329%,50%);stroke-opacity:0.7;stroke-miterlimit:3.25;" d="M 93.429688 163.941406 Z M 93.429688 163.941406 "/>
<path style="fill:none;stroke-width:1;stroke-linecap:square;stroke-linejoin:miter;stroke:rgb(14.99939%,28.999329%,50%);stroke-opacity:0.7;stroke-miterlimit:3.25;" d="M 136.414063 203.132813 Z M 136.414063 203.132813 "/>
<path style="fill:none;stroke-width:1;stroke-linecap:square;stroke-linejoin:miter;stroke:rgb(14.99939%,28.999329%,50%);stroke-opacity:0.7;stroke-miterlimit:3.25;" d="M 131.507813 201.972656 Z M 131.507813 201.972656 "/>
<path style="fill:none;stroke-width:1;stroke-linecap:square;stroke-linejoin:miter;stroke:rgb(14.99939%,28.999329%,50%);stroke-opacity:0.7;stroke-miterlimit:3.25;" d="M 64.261719 189.035156 Z M 64.261719 189.035156 "/>
<path style="fill:none;stroke-width:1;stroke-linecap:square;stroke-linejoin:miter;stroke:rgb(14.99939%,28.999329%,50%);stroke-opacity:0.7;stroke-miterlimit:3.25;" d="M 60.773438 139.054688 Z M 60.773438 139.054688 "/>
<path style="fill:none;stroke-width:1;stroke-linecap:square;stroke-linejoin:miter;stroke:rgb(14.99939%,28.999329%,50%);stroke-opacity:0.7;stroke-miterlimit:3.25;" d="M 132.054688 198.523438 Z M 132.054688 198.523438 "/>
<path style="fill:none;stroke-width:1;stroke-linecap:square;stroke-linejoin:miter;stroke:rgb(14.99939%,28.999329%,50%);stroke-opacity:0.7;stroke-miterlimit:3.25;" d="M 62.847656 137.917969 Z M 62.847656 137.917969 "/>
<path style="fill:none;stroke-width:1;stroke-linecap:square;stroke-linejoin:miter;stroke:rgb(14.99939%,28.999329%,50%);stroke-opacity:0.7;stroke-miterlimit:3.25;" d="M 66.808594 186.554688 Z M 66.808594 186.554688 "/>
<path style="fill:none;stroke-width:1;stroke-linecap:square;stroke-linejoin:miter;stroke:rgb(14.99939%,28.999329%,50%);stroke-opacity:0.7;stroke-miterlimit:3.25;" d="M 62.789063 137.992188 Z M 62.789063 137.992188 "/>
<path style="fill:none;stroke-width:1;stroke-linecap:square;stroke-linejoin:miter;stroke:rgb(14.99939%,28.999329%,50%);stroke-opacity:0.7;stroke-miterlimit:3.25;" d="M 60.605469 139.070313 Z M 60.605469 139.070313 "/>
<path style="fill-rule:evenodd;fill:rgb(63.998413%,70.399475%,79.998779%);fill-opacity:1;stroke-width:1;stroke-linecap:square;stroke-linejoin:miter;stroke:rgb(0%,0%,0%);stroke-opacity:0.7;stroke-miterlimit:3.25;" d="M 133.101563 165.335938 C 133.101563 164.492188 132.765625 163.683594 132.167969 163.085938 C 131.574219 162.492188 130.765625 162.15625 129.921875 162.15625 C 129.078125 162.15625 128.269531 162.492188 127.671875 163.085938 C 127.078125 163.683594 126.742188 164.492188 126.742188 165.335938 C 126.742188 166.179688 127.078125 166.988281 127.671875 167.582031 C 128.269531 168.179688 129.078125 168.515625 129.921875 168.515625 C 130.765625 168.515625 131.574219 168.179688 132.167969 167.582031 C 132.765625 166.988281 133.101563 166.179688 133.101563 165.335938 Z M 133.101563 165.335938 "/>
<path style="fill-rule:evenodd;fill:rgb(63.998413%,70.399475%,79.998779%);fill-opacity:1;stroke-width:1;stroke-linecap:square;stroke-linejoin:miter;stroke:rgb(0%,0%,0%);stroke-opacity:0.7;stroke-miterlimit:3.25;" d="M 13.558594 132.140625 C 13.558594 131.296875 13.226563 130.488281 12.628906 129.890625 C 12.03125 129.292969 11.222656 128.960938 10.378906 128.960938 C 9.535156 128.960938 8.726563 129.292969 8.132813 129.890625 C 7.535156 130.488281 7.199219 131.296875 7.199219 132.140625 C 7.199219 132.984375 7.535156 133.792969 8.132813 134.386719 C 8.726563 134.984375 9.535156 135.320313 10.378906 135.320313 C 11.222656 135.320313 12.03125 134.984375 12.628906 134.386719 C 13.226563 133.792969 13.558594 132.984375 13.558594 132.140625 Z M 13.558594 132.140625 "/>
<path style="fill-rule:evenodd;fill:rgb(63.998413%,70.399475%,79.998779%);fill-opacity:1;stroke-width:1;stroke-linecap:square;stroke-linejoin:miter;stroke:rgb(0%,0%,0%);stroke-opacity:0.7;stroke-miterlimit:3.25;" d="M 79.105469 92.46875 C 79.105469 91.625 78.773438 90.816406 78.175781 90.21875 C 77.578125 89.625 76.769531 89.289063 75.925781 89.289063 C 75.082031 89.289063 74.273438 89.625 73.679688 90.21875 C 73.082031 90.816406 72.746094 91.625 72.746094 92.46875 C 72.746094 93.3125 73.082031 94.121094 73.679688 94.71875 C 74.273438 95.3125 75.082031 95.648438 75.925781 95.648438 C 76.769531 95.648438 77.578125 95.3125 78.175781 94.71875 C 78.773438 94.121094 79.105469 93.3125 79.105469 92.46875 Z M 79.105469 92.46875 "/>
<path style="fill-rule:evenodd;fill:rgb(63.998413%,70.399475%,79.998779%);fill-opacity:1;stroke-width:1;stroke-linecap:square;stroke-linejoin:miter;stroke:rgb(0%,0%,0%);stroke-opacity:0.7;stroke-miterlimit:3.25;" d="M 53.246094 80.355469 C 53.246094 79.515625 52.910156 78.703125 52.3125 78.109375 C 51.71875 77.511719 50.910156 77.175781 50.066406 77.175781 C 49.222656 77.175781 48.414063 77.511719 47.816406 78.109375 C 47.222656 78.703125 46.886719 79.515625 46.886719 80.355469 C 46.886719 81.199219 47.222656 82.007813 47.816406 82.605469 C 48.414063 83.203125 49.222656 83.535156 50.066406 83.535156 C 50.910156 83.535156 51.71875 83.203125 52.3125 82.605469 C 52.910156 82.007813 53.246094 81.199219 53.246094 80.355469 Z M 53.246094 80.355469 "/>
<path style="fill-rule:evenodd;fill:rgb(63.998413%,70.399475%,79.998779%);fill-opacity:1;stroke-width:1;stroke-linecap:square;stroke-linejoin:miter;stroke:rgb(0%,0%,0%);stroke-opacity:0.7;stroke-miterlimit:3.25;" d="M 100.425781 120.140625 C 100.425781 119.296875 100.089844 118.488281 99.496094 117.890625 C 98.898438 117.292969 98.089844 116.960938 97.246094 116.960938 C 96.402344 116.960938 95.59375 117.292969 94.996094 117.890625 C 94.402344 118.488281 94.066406 119.296875 94.066406 120.140625 C 94.066406 120.984375 94.402344 121.792969 94.996094 122.386719 C 95.59375 122.984375 96.402344 123.320313 97.246094 123.320313 C 98.089844 123.320313 98.898438 122.984375 99.496094 122.386719 C 100.089844 121.792969 100.425781 120.984375 100.425781 120.140625 Z M 100.425781 120.140625 "/>
<path style="fill-rule:evenodd;fill:rgb(63.998413%,70.399475%,79.998779%);fill-opacity:1;stroke-width:1;stroke-linecap:square;stroke-linejoin:miter;stroke:rgb(0%,0%,0%);stroke-opacity:0.7;stroke-miterlimit:3.25;" d="M 140.453125 92.289063 C 140.453125 91.445313 140.121094 90.636719 139.523438 90.042969 C 138.925781 89.445313 138.117188 89.109375 137.273438 89.109375 C 136.429688 89.109375 135.621094 89.445313 135.027344 90.042969 C 134.429688 90.636719 134.09375 91.445313 134.09375 92.289063 C 134.09375 93.132813 134.429688 93.941406 135.027344 94.539063 C 135.621094 95.132813 136.429688 95.46875 137.273438 95.46875 C 138.117188 95.46875 138.925781 95.132813 139.523438 94.539063 C 140.121094 93.941406 140.453125 93.132813 140.453125 92.289063 Z M 140.453125 92.289063 "/>
<path style="fill-rule:evenodd;fill:rgb(63.998413%,70.399475%,79.998779%);fill-opacity:1;stroke-width:1;stroke-linecap:square;stroke-linejoin:miter;stroke:rgb(0%,0%,0%);stroke-opacity:0.7;stroke-miterlimit:3.25;" d="M 74.558594 34.570313 C 74.558594 33.726563 74.226563 32.917969 73.628906 32.320313 C 73.03125 31.726563 72.222656 31.390625 71.378906 31.390625 C 70.535156 31.390625 69.726563 31.726563 69.132813 32.320313 C 68.535156 32.917969 68.199219 33.726563 68.199219 34.570313 C 68.199219 35.414063 68.535156 36.222656 69.132813 36.820313 C 69.726563 37.414063 70.535156 37.75 71.378906 37.75 C 72.222656 37.75 73.03125 37.414063 73.628906 36.820313 C 74.226563 36.222656 74.558594 35.414063 74.558594 34.570313 Z M 74.558594 34.570313 "/>
<path style="fill-rule:evenodd;fill:rgb(63.998413%,70.399475%,79.998779%);fill-opacity:1;stroke-width:1;stroke-linecap:square;stroke-linejoin:miter;stroke:rgb(0%,0%,0%);stroke-opacity:0.7;stroke-miterlimit:3.25;" d="M 199.449219 38.109375 C 199.449219 37.265625 199.117188 36.457031 198.519531 35.863281 C 197.921875 35.265625 197.113281 34.929688 196.269531 34.929688 C 195.425781 34.929688 194.617188 35.265625 194.023438 35.863281 C 193.425781 36.457031 193.089844 37.265625 193.089844 38.109375 C 193.089844 38.953125 193.425781 39.761719 194.023438 40.359375 C 194.617188 40.953125 195.425781 41.289063 196.269531 41.289063 C 197.113281 41.289063 197.921875 40.953125 198.519531 40.359375 C 199.117188 39.761719 199.449219 38.953125 199.449219 38.109375 Z M 199.449219 38.109375 "/>
<path style="fill-rule:evenodd;fill:rgb(63.998413%,70.399475%,79.998779%);fill-opacity:1;stroke-width:1;stroke-linecap:square;stroke-linejoin:miter;stroke:rgb(0%,0%,0%);stroke-opacity:0.7;stroke-miterlimit:3.25;" d="M 139.082031 37.757813 C 139.082031 36.914063 138.746094 36.105469 138.148438 35.507813 C 137.554688 34.910156 136.746094 34.574219 135.902344 34.574219 C 135.058594 34.574219 134.25 34.910156 133.652344 35.507813 C 133.058594 36.105469 132.722656 36.914063 132.722656 37.757813 C 132.722656 38.597656 133.058594 39.410156 133.652344 40.003906 C 134.25 40.601563 135.058594 40.9375 135.902344 40.9375 C 136.746094 40.9375 137.554688 40.601563 138.148438 40.003906 C 138.746094 39.410156 139.082031 38.597656 139.082031 37.757813 Z M 139.082031 37.757813 "/>
<path style="fill-rule:evenodd;fill:rgb(63.998413%,70.399475%,79.998779%);fill-opacity:1;stroke-width:1;stroke-linecap:square;stroke-linejoin:miter;stroke:rgb(0%,0%,0%);stroke-opacity:0.7;stroke-miterlimit:3.25;" d="M 228.878906 10.09375 C 228.878906 9.25 228.542969 8.441406 227.945313 7.84375 C 227.351563 7.246094 226.542969 6.910156 225.699219 6.910156 C 224.855469 6.910156 224.046875 7.246094 223.449219 7.84375 C 222.851563 8.441406 222.519531 9.25 222.519531 10.09375 C 222.519531 10.933594 222.851563 11.742188 223.449219 12.339844 C 224.046875 12.9375 224.855469 13.273438 225.699219 13.273438 C 226.542969 13.273438 227.351563 12.9375 227.945313 12.339844 C 228.542969 11.742188 228.878906 10.933594 228.878906 10.09375 Z M 228.878906 10.09375 "/>
<path style="fill-rule:evenodd;fill:rgb(63.998413%,70.399475%,79.998779%);fill-opacity:1;stroke-width:1;stroke-linecap:square;stroke-linejoin:miter;stroke:rgb(0%,0%,0%);stroke-opacity:0.7;stroke-miterlimit:3.25;" d="M 185.601563 62.039063 C 185.601563 61.199219 185.269531 60.390625 184.671875 59.792969 C 184.074219 59.195313 183.265625 58.859375 182.421875 58.859375 C 181.578125 58.859375 180.769531 59.195313 180.175781 59.792969 C 179.578125 60.390625 179.242188 61.199219 179.242188 62.039063 C 179.242188 62.882813 179.578125 63.691406 180.175781 64.289063 C 180.769531 64.886719 181.578125 65.222656 182.421875 65.222656 C 183.265625 65.222656 184.074219 64.886719 184.671875 64.289063 C 185.269531 63.691406 185.601563 62.882813 185.601563 62.039063 Z M 185.601563 62.039063 "/>
<path style="fill-rule:evenodd;fill:rgb(63.998413%,70.399475%,79.998779%);fill-opacity:1;stroke-width:1;stroke-linecap:square;stroke-linejoin:miter;stroke:rgb(0%,0%,0%);stroke-opacity:0.7;stroke-miterlimit:3.25;" d="M 245.945313 90.136719 C 245.945313 89.292969 245.609375 88.484375 245.011719 87.886719 C 244.417969 87.292969 243.609375 86.957031 242.765625 86.957031 C 241.921875 86.957031 241.113281 87.292969 240.515625 87.886719 C 239.921875 88.484375 239.585938 89.292969 239.585938 90.136719 C 239.585938 90.980469 239.921875 91.789063 240.515625 92.386719 C 241.113281 92.980469 241.921875 93.316406 242.765625 93.316406 C 243.609375 93.316406 244.417969 92.980469 245.011719 92.386719 C 245.609375 91.789063 245.945313 90.980469 245.945313 90.136719 Z M 245.945313 90.136719 "/>
<path style="fill-rule:evenodd;fill:rgb(63.998413%,70.399475%,79.998779%);fill-opacity:1;stroke-width:1;stroke-linecap:square;stroke-linejoin:miter;stroke:rgb(0%,0%,0%);stroke-opacity:0.7;stroke-miterlimit:3.25;" d="M 186.574219 117.042969 C 186.574219 116.199219 186.242188 115.390625 185.644531 114.792969 C 185.046875 114.195313 184.238281 113.859375 183.394531 113.859375 C 182.554688 113.859375 181.742188 114.195313 181.148438 114.792969 C 180.550781 115.390625 180.214844 116.199219 180.214844 117.042969 C 180.214844 117.882813 180.550781 118.695313 181.148438 119.289063 C 181.742188 119.886719 182.554688 120.222656 183.394531 120.222656 C 184.238281 120.222656 185.046875 119.886719 185.644531 119.289063 C 186.242188 118.695313 186.574219 117.882813 186.574219 117.042969 Z M 186.574219 117.042969 "/>
<path style="fill-rule:evenodd;fill:rgb(63.998413%,70.399475%,79.998779%);fill-opacity:1;stroke-width:1;stroke-linecap:square;stroke-linejoin:miter;stroke:rgb(0%,0%,0%);stroke-opacity:0.7;stroke-miterlimit:3.25;" d="M 352.800781 45.882813 C 352.800781 45.042969 352.464844 44.234375 351.867188 43.636719 C 351.273438 43.039063 350.464844 42.703125 349.621094 42.703125 C 348.777344 42.703125 347.96875 43.039063 347.371094 43.636719 C 346.773438 44.234375 346.441406 45.042969 346.441406 45.882813 C 346.441406 46.726563 346.773438 47.535156 347.371094 48.132813 C 347.96875 48.730469 348.777344 49.066406 349.621094 49.066406 C 350.464844 49.066406 351.273438 48.730469 351.867188 48.132813 C 352.464844 47.535156 352.800781 46.726563 352.800781 45.882813 Z M 352.800781 45.882813 "/>
<path style="fill-rule:evenodd;fill:rgb(63.998413%,70.399475%,79.998779%);fill-opacity:1;stroke-width:1;stroke-linecap:square;stroke-linejoin:miter;stroke:rgb(0%,0%,0%);stroke-opacity:0.7;stroke-miterlimit:3.25;" d="M 307.882813 114.386719 C 307.882813 113.542969 307.546875 112.734375 306.949219 112.136719 C 306.351563 111.542969 305.542969 111.207031 304.703125 111.207031 C 303.859375 111.207031 303.050781 111.542969 302.453125 112.136719 C 301.855469 112.734375 301.519531 113.542969 301.519531 114.386719 C 301.519531 115.230469 301.855469 116.039063 302.453125 116.632813 C 303.050781 117.230469 303.859375 117.566406 304.703125 117.566406 C 305.542969 117.566406 306.351563 117.230469 306.949219 116.632813 C 307.546875 116.039063 307.882813 115.230469 307.882813 114.386719 Z M 307.882813 114.386719 "/>
<path style="fill-rule:evenodd;fill:rgb(63.998413%,70.399475%,79.998779%);fill-opacity:1;stroke-width:1;stroke-linecap:square;stroke-linejoin:miter;stroke:rgb(0%,0%,0%);stroke-opacity:0.7;stroke-miterlimit:3.25;" d="M 281.90625 70.753906 C 281.90625 69.910156 281.570313 69.101563 280.972656 68.503906 C 280.378906 67.90625 279.570313 67.574219 278.726563 67.574219 C 277.882813 67.574219 277.074219 67.90625 276.476563 68.503906 C 275.878906 69.101563 275.546875 69.910156 275.546875 70.753906 C 275.546875 71.597656 275.878906 72.40625 276.476563 73 C 277.074219 73.597656 277.882813 73.933594 278.726563 73.933594 C 279.570313 73.933594 280.378906 73.597656 280.972656 73 C 281.570313 72.40625 281.90625 71.597656 281.90625 70.753906 Z M 281.90625 70.753906 "/>
<path style="fill-rule:evenodd;fill:rgb(63.998413%,70.399475%,79.998779%);fill-opacity:1;stroke-width:1;stroke-linecap:square;stroke-linejoin:miter;stroke:rgb(0%,0%,0%);stroke-opacity:0.7;stroke-miterlimit:3.25;" d="M 243.382813 118.945313 C 243.382813 118.101563 243.046875 117.292969 242.453125 116.699219 C 241.855469 116.101563 241.046875 115.765625 240.203125 115.765625 C 239.359375 115.765625 238.550781 116.101563 237.953125 116.699219 C 237.359375 117.292969 237.023438 118.101563 237.023438 118.945313 C 237.023438 119.789063 237.359375 120.597656 237.953125 121.195313 C 238.550781 121.789063 239.359375 122.125 240.203125 122.125 C 241.046875 122.125 241.855469 121.789063 242.453125 121.195313 C 243.046875 120.597656 243.382813 119.789063 243.382813 118.945313 Z M 243.382813 118.945313 "/>
<path style="fill-rule:evenodd;fill:rgb(63.998413%,70.399475%,79.998779%);fill-opacity:1;stroke-width:1;stroke-linecap:square;stroke-linejoin:miter;stroke:rgb(0%,0%,0%);stroke-opacity:0.7;stroke-miterlimit:3.25;" d="M 317.957031 144.105469 C 317.957031 143.261719 317.625 142.453125 317.027344 141.859375 C 316.429688 141.261719 315.621094 140.925781 314.777344 140.925781 C 313.933594 140.925781 313.125 141.261719 312.53125 141.859375 C 311.933594 142.453125 311.597656 143.261719 311.597656 144.105469 C 311.597656 144.949219 311.933594 145.757813 312.53125 146.355469 C 313.125 146.953125 313.933594 147.285156 314.777344 147.285156 C 315.621094 147.285156 316.429688 146.953125 317.027344 146.355469 C 317.625 145.757813 317.957031 144.949219 317.957031 144.105469 Z M 317.957031 144.105469 "/>
<path style="fill-rule:evenodd;fill:rgb(63.998413%,70.399475%,79.998779%);fill-opacity:1;stroke-width:1;stroke-linecap:square;stroke-linejoin:miter;stroke:rgb(0%,0%,0%);stroke-opacity:0.7;stroke-miterlimit:3.25;" d="M 286.140625 153.242188 C 286.140625 152.398438 285.804688 151.589844 285.207031 150.992188 C 284.613281 150.394531 283.804688 150.0625 282.960938 150.0625 C 282.117188 150.0625 281.308594 150.394531 280.710938 150.992188 C 280.113281 151.589844 279.78125 152.398438 279.78125 153.242188 C 279.78125 154.085938 280.113281 154.894531 280.710938 155.488281 C 281.308594 156.085938 282.117188 156.421875 282.960938 156.421875 C 283.804688 156.421875 284.613281 156.085938 285.207031 155.488281 C 285.804688 154.894531 286.140625 154.085938 286.140625 153.242188 Z M 286.140625 153.242188 "/>
<path style="fill-rule:evenodd;fill:rgb(63.998413%,70.399475%,79.998779%);fill-opacity:1;stroke-width:1;stroke-linecap:square;stroke-linejoin:miter;stroke:rgb(0%,0%,0%);stroke-opacity:0.7;stroke-miterlimit:3.25;" d="M 244.75 150.285156 C 244.75 149.441406 244.414063 148.632813 243.816406 148.039063 C 243.222656 147.441406 242.414063 147.105469 241.570313 147.105469 C 240.726563 147.105469 239.917969 147.441406 239.320313 148.039063 C 238.726563 148.632813 238.390625 149.441406 238.390625 150.285156 C 238.390625 151.128906 238.726563 151.9375 239.320313 152.535156 C 239.917969 153.132813 240.726563 153.464844 241.570313 153.464844 C 242.414063 153.464844 243.222656 153.132813 243.816406 152.535156 C 244.414063 151.9375 244.75 151.128906 244.75 150.285156 Z M 244.75 150.285156 "/>
<path style="fill-rule:evenodd;fill:rgb(63.998413%,70.399475%,79.998779%);fill-opacity:1;stroke-width:1;stroke-linecap:square;stroke-linejoin:miter;stroke:rgb(0%,0%,0%);stroke-opacity:0.7;stroke-miterlimit:3.25;" d="M 235.375 203.304688 C 235.375 202.460938 235.039063 201.652344 234.441406 201.054688 C 233.847656 200.460938 233.035156 200.125 232.195313 200.125 C 231.351563 200.125 230.542969 200.460938 229.945313 201.054688 C 229.347656 201.652344 229.015625 202.460938 229.015625 203.304688 C 229.015625 204.148438 229.347656 204.957031 229.945313 205.554688 C 230.542969 206.148438 231.351563 206.484375 232.195313 206.484375 C 233.035156 206.484375 233.847656 206.148438 234.441406 205.554688 C 235.039063 204.957031 235.375 204.148438 235.375 203.304688 Z M 235.375 203.304688 "/>
<path style="fill-rule:evenodd;fill:rgb(63.998413%,70.399475%,79.998779%);fill-opacity:1;stroke-width:1;stroke-linecap:square;stroke-linejoin:miter;stroke:rgb(0%,0%,0%);stroke-opacity:0.7;stroke-miterlimit:3.25;" d="M 265.085938 272.851563 C 265.085938 272.007813 264.75 271.199219 264.152344 270.601563 C 263.558594 270.003906 262.75 269.671875 261.90625 269.671875 C 261.0625 269.671875 260.253906 270.003906 259.65625 270.601563 C 259.058594 271.199219 258.726563 272.007813 258.726563 272.851563 C 258.726563 273.691406 259.058594 274.503906 259.65625 275.097656 C 260.253906 275.695313 261.0625 276.03125 261.90625 276.03125 C 262.75 276.03125 263.558594 275.695313 264.152344 275.097656 C 264.75 274.503906 265.085938 273.691406 265.085938 272.851563 Z M 265.085938 272.851563 "/>
<path style="fill-rule:evenodd;fill:rgb(63.998413%,70.399475%,79.998779%);fill-opacity:1;stroke-width:1;stroke-linecap:square;stroke-linejoin:miter;stroke:rgb(0%,0%,0%);stroke-opacity:0.7;stroke-miterlimit:3.25;" d="M 271.960938 232.652344 C 271.960938 231.808594 271.625 231 271.027344 230.402344 C 270.433594 229.804688 269.625 229.472656 268.78125 229.472656 C 267.9375 229.472656 267.128906 229.804688 266.53125 230.402344 C 265.933594 231 265.601563 231.808594 265.601563 232.652344 C 265.601563 233.496094 265.933594 234.304688 266.53125 234.898438 C 267.128906 235.496094 267.9375 235.832031 268.78125 235.832031 C 269.625 235.832031 270.433594 235.496094 271.027344 234.898438 C 271.625 234.304688 271.960938 233.496094 271.960938 232.652344 Z M 271.960938 232.652344 "/>
<path style="fill-rule:evenodd;fill:rgb(63.998413%,70.399475%,79.998779%);fill-opacity:1;stroke-width:1;stroke-linecap:square;stroke-linejoin:miter;stroke:rgb(0%,0%,0%);stroke-opacity:0.7;stroke-miterlimit:3.25;" d="M 172.320313 257.003906 C 172.320313 256.160156 171.984375 255.351563 171.390625 254.757813 C 170.792969 254.160156 169.984375 253.824219 169.140625 253.824219 C 168.296875 253.824219 167.488281 254.160156 166.890625 254.757813 C 166.296875 255.351563 165.960938 256.160156 165.960938 257.003906 C 165.960938 257.847656 166.296875 258.65625 166.890625 259.253906 C 167.488281 259.847656 168.296875 260.183594 169.140625 260.183594 C 169.984375 260.183594 170.792969 259.847656 171.390625 259.253906 C 171.984375 258.65625 172.320313 257.847656 172.320313 257.003906 Z M 172.320313 257.003906 "/>
<path style="fill-rule:evenodd;fill:rgb(63.998413%,70.399475%,79.998779%);fill-opacity:1;stroke-width:1;stroke-linecap:square;stroke-linejoin:miter;stroke:rgb(0%,0%,0%);stroke-opacity:0.7;stroke-miterlimit:3.25;" d="M 197.570313 274.300781 C 197.570313 273.457031 197.234375 272.648438 196.640625 272.054688 C 196.042969 271.457031 195.234375 271.121094 194.390625 271.121094 C 193.546875 271.121094 192.738281 271.457031 192.140625 272.054688 C 191.546875 272.648438 191.210938 273.457031 191.210938 274.300781 C 191.210938 275.144531 191.546875 275.953125 192.140625 276.550781 C 192.738281 277.148438 193.546875 277.480469 194.390625 277.480469 C 195.234375 277.480469 196.042969 277.148438 196.640625 276.550781 C 197.234375 275.953125 197.570313 275.144531 197.570313 274.300781 Z M 197.570313 274.300781 "/>
<path style="fill-rule:evenodd;fill:rgb(63.998413%,70.399475%,79.998779%);fill-opacity:1;stroke-width:1;stroke-linecap:square;stroke-linejoin:miter;stroke:rgb(0%,0%,0%);stroke-opacity:0.7;stroke-miterlimit:3.25;" d="M 74.695313 229.066406 C 74.695313 228.222656 74.359375 227.414063 73.761719 226.816406 C 73.167969 226.222656 72.359375 225.886719 71.515625 225.886719 C 70.671875 225.886719 69.863281 226.222656 69.265625 226.816406 C 68.667969 227.414063 68.335938 228.222656 68.335938 229.066406 C 68.335938 229.910156 68.667969 230.71875 69.265625 231.316406 C 69.863281 231.910156 70.671875 232.246094 71.515625 232.246094 C 72.359375 232.246094 73.167969 231.910156 73.761719 231.316406 C 74.359375 230.71875 74.695313 229.910156 74.695313 229.066406 Z M 74.695313 229.066406 "/>
<path style="fill-rule:evenodd;fill:rgb(63.998413%,70.399475%,79.998779%);fill-opacity:1;stroke-width:1;stroke-linecap:square;stroke-linejoin:miter;stroke:rgb(0%,0%,0%);stroke-opacity:0.7;stroke-miterlimit:3.25;" d="M 94.601563 161.472656 C 94.601563 160.628906 94.269531 159.820313 93.671875 159.222656 C 93.074219 158.628906 92.265625 158.292969 91.421875 158.292969 C 90.578125 158.292969 89.769531 158.628906 89.175781 159.222656 C 88.578125 159.820313 88.242188 160.628906 88.242188 161.472656 C 88.242188 162.316406 88.578125 163.125 89.175781 163.722656 C 89.769531 164.316406 90.578125 164.652344 91.421875 164.652344 C 92.265625 164.652344 93.074219 164.316406 93.671875 163.722656 C 94.269531 163.125 94.601563 162.316406 94.601563 161.472656 Z M 94.601563 161.472656 "/>
<path style="fill-rule:evenodd;fill:rgb(63.998413%,70.399475%,79.998779%);fill-opacity:1;stroke-width:1;stroke-linecap:square;stroke-linejoin:miter;stroke:rgb(0%,0%,0%);stroke-opacity:0.7;stroke-miterlimit:3.25;" d="M 137.585938 200.664063 C 137.585938 199.824219 137.25 199.011719 136.65625 198.417969 C 136.058594 197.820313 135.25 197.484375 134.40625 197.484375 C 133.5625 197.484375 132.753906 197.820313 132.15625 198.417969 C 131.5625 199.011719 131.226563 199.824219 131.226563 200.664063 C 131.226563 201.507813 131.5625 202.316406 132.15625 202.914063 C 132.753906 203.511719 133.5625 203.847656 134.40625 203.847656 C 135.25 203.847656 136.058594 203.511719 136.65625 202.914063 C 137.25 202.316406 137.585938 201.507813 137.585938 200.664063 Z M 137.585938 200.664063 "/>
<path style="fill-rule:evenodd;fill:rgb(63.998413%,70.399475%,79.998779%);fill-opacity:1;stroke-width:1;stroke-linecap:square;stroke-linejoin:miter;stroke:rgb(0%,0%,0%);stroke-opacity:0.7;stroke-miterlimit:3.25;" d="M 66.875 185.90625 C 66.875 185.0625 66.539063 184.253906 65.945313 183.65625 C 65.347656 183.0625 64.539063 182.726563 63.695313 182.726563 C 62.851563 182.726563 62.042969 183.0625 61.445313 183.65625 C 60.851563 184.253906 60.515625 185.0625 60.515625 185.90625 C 60.515625 186.75 60.851563 187.558594 61.445313 188.15625 C 62.042969 188.75 62.851563 189.085938 63.695313 189.085938 C 64.539063 189.085938 65.347656 188.75 65.945313 188.15625 C 66.539063 187.558594 66.875 186.75 66.875 185.90625 Z M 66.875 185.90625 "/>
<path style="fill-rule:evenodd;fill:rgb(63.998413%,70.399475%,79.998779%);fill-opacity:1;stroke-width:1;stroke-linecap:square;stroke-linejoin:miter;stroke:rgb(0%,0%,0%);stroke-opacity:0.7;stroke-miterlimit:3.25;" d="M 63.574219 135.894531 C 63.574219 135.054688 63.238281 134.246094 62.644531 133.648438 C 62.046875 133.050781 61.238281 132.714844 60.394531 132.714844 C 59.550781 132.714844 58.742188 133.050781 58.148438 133.648438 C 57.550781 134.246094 57.214844 135.054688 57.214844 135.894531 C 57.214844 136.738281 57.550781 137.546875 58.148438 138.144531 C 58.742188 138.742188 59.550781 139.078125 60.394531 139.078125 C 61.238281 139.078125 62.046875 138.742188 62.644531 138.144531 C 63.238281 137.546875 63.574219 136.738281 63.574219 135.894531 Z M 63.574219 135.894531 "/>
</g>
</svg>
